<svg id="visual" viewBox="0 0 960 540" width="960" height="540" xmlns="http://www.w3.org/2000/svg" xmlns:xlink="http://www.w3.org/1999/xlink" version="1.1"><path d="M0 290L32 305C64 320 128 350 192 360.8C256 371.7 320 363.3 384 348.3C448 333.3 512 311.7 576 295.2C640 278.7 704 267.3 768 288.2C832 309 896 362 928 388.5L960 415L960 541L928 541C896 541 832 541 768 541C704 541 640 541 576 541C512 541 448 541 384 541C320 541 256 541 192 541C128 541 64 541 32 541L0 541Z" fill="#e8d7d8" stroke-linecap="round" stroke-linejoin="miter"></path></svg>