<svg viewBox="-53.328 590.425 1318.823 590.425" width="1318.823" height="590.425" xmlns="http://www.w3.org/2000/svg"><g style="mix-blend-mode:darken;stroke-width:.150548;vector-effect:non-scaling-stroke"><rect style="stroke:none;stroke-width:1;stroke-dasharray:none;stroke-linecap:butt;stroke-dashoffset:0;stroke-linejoin:miter;stroke-miterlimit:4;fill:#ffdce0;fill-rule:nonzero;opacity:1" x="-540" y="-540" rx="0" ry="0" width="1080" height="1080" transform="matrix(1.22113 0 0 .54669 606.084 885.637)"/></g><g style="mix-blend-mode:darken;stroke-width:1.73034;vector-effect:non-scaling-stroke"><path style="stroke:none;stroke-width:1;stroke-dasharray:none;stroke-linecap:butt;stroke-dashoffset:0;stroke-linejoin:miter;stroke-miterlimit:4;fill:#111;fill-rule:nonzero;opacity:1" transform="translate(-1422.964 361.706)scale(2.77)" d="M710.81 125.09a1.9 1.9 0 0 1 1.39.574q.571.574.574 1.391v3.983q0 .818-.573 1.391a1.9 1.9 0 0 1-1.391.573h-5.62q-.765 0-1.337-.573a1.9 1.9 0 0 1-.573-1.391v-3.983q0-.818.573-1.391.572-.573 1.337-.574zm24.39 0q.763 0 1.336.574t.573 1.391v3.983q0 .818-.573 1.391t-1.337.573h-10.967v30.992q0 .764-.573 1.337t-1.337.573h-4.201a1.9 1.9 0 0 1-1.391-.573q-.573-.573-.573-1.337v-36.939q0-.818.573-1.391a1.9 1.9 0 0 1 1.39-.574zm.114 0q.818 0 1.391.574t.573 1.391v3.983q0 .818-.573 1.391a1.9 1.9 0 0 1-1.391.573h-5.62q-.765 0-1.337-.573a1.9 1.9 0 0 1-.573-1.391v-3.983q0-.818.573-1.391.572-.573 1.337-.574zm24.39 0q.763 0 1.336.574t.573 1.391v3.983q0 .818-.573 1.391t-1.337.573h-10.967v30.992q0 .764-.573 1.337t-1.337.573h-4.2a1.9 1.9 0 0 1-1.392-.573q-.573-.573-.573-1.337v-36.939q0-.818.573-1.391a1.9 1.9 0 0 1 1.391-.574z"/><rect style="stroke:none;stroke-width:1;stroke-dasharray:none;stroke-linecap:butt;stroke-dashoffset:0;stroke-linejoin:miter;stroke-miterlimit:4;fill:#111;fill-rule:nonzero;opacity:1" x="-195" y="-33.5" rx="10" ry="10" width="390" height="67" transform="translate(605.452 969.97)scale(2.77)"/><path style="stroke-width:1;stroke-dasharray:none;stroke-linecap:butt;stroke-dashoffset:0;stroke-linejoin:miter;stroke-miterlimit:4;fill-rule:nonzero;opacity:1;paint-order:fill;fill:#ffdce0" transform="translate(-1422.964 361.706)scale(2.77)" d="M574.813 206.09v3.434h-6.867v23.691h-3.78v-23.69h-6.886v-3.435zm26.153 27.125-7.021-12.2h-3.798v12.2h-3.819V206.09h9.132c5.677 0 8.267 3.472 8.267 7.731 0 3.78-2.225 6.407-5.947 7.04l7.656 12.354zm-10.82-23.825v8.71h4.796c3.53 0 5.122-1.766 5.122-4.336 0-2.532-1.592-4.374-5.122-4.374zm41.959.135h-10.856v8.44h9.572v3.415h-9.572v8.384h10.858v3.452h-14.753V206.09h14.753zm31.101-3.435h3.8v27.125h-4.126l-14.177-21.523v21.523h-3.778V206.09h4.086l14.195 21.428zm18.403 27.125V206.09h8.94c8.344 0 12.584 5.602 12.584 13.544 0 7.998-4.24 13.581-12.585 13.581zm3.817-3.453h4.97c5.927 0 8.746-3.933 8.746-10.13 0-6.158-2.819-10.109-8.747-10.109h-4.969zm61.532-23.672v3.434h-6.869v23.691h-3.778v-23.69h-6.887v-3.435zm28.703 0h3.817v27.125h-3.817v-11.893h-13.332v11.893h-3.856V206.09h3.856v11.837h13.332zm33.077 27.125-7.022-12.2h-3.798v12.2H794.1V206.09h9.132c5.679 0 8.268 3.472 8.268 7.731 0 3.78-2.225 6.407-5.946 7.04l7.654 12.354zm-10.82-23.825v8.71h4.795c3.53 0 5.122-1.766 5.122-4.336 0-2.532-1.59-4.374-5.122-4.374zm41.959.135h-10.858v8.44h9.572v3.415h-9.572v8.384h10.858v3.452h-14.752V206.09h14.752zm30.372 23.691-2.264-6.33h-12.124l-2.264 6.33h-3.97l9.993-27.126h4.604l9.995 27.125zm-13.198-9.668h9.746l-4.873-13.678zm28.704 9.668V206.09h8.938c8.345 0 12.585 5.602 12.585 13.544 0 7.998-4.239 13.581-12.585 13.581zm3.816-3.453h4.97c5.927 0 8.746-3.933 8.746-10.13 0-6.158-2.818-10.109-8.747-10.109h-4.969z"/></g></svg>