<svg xmlns="http://www.w3.org/2000/svg" version="1.1" viewBox="-5.0 -10.0 110.0 135.0">
 <path d="m96.016 53.898c0 2.1797-1.7656 3.9453-3.9453 3.9453h-12.422v34.227c0 2.3125-1.9805 4.1328-4.293 3.9297h-14.691c-0.95703 0.039062-1.6953-0.10156-2.4961-0.62109-1.082-0.70312-1.7969-1.9219-1.7969-3.3086v-21.492h-12.746v21.492c0 2.1875-1.7734 3.9453-3.9453 3.9453h-15.398c-2.1797 0-3.9453-1.7656-3.9453-3.9453v-34.227l-12.422-0.019531c-3.3828 0-5.207-4.0508-2.8984-6.5781l42.082-45.988c1.5547-1.6953 4.2383-1.6992 5.793 0l41.82 45.711c0.80078 0.72266 1.3047 1.7695 1.3047 2.9297z" fill-rule="evenodd"/>
</svg>