<svg xmlns="http://www.w3.org/2000/svg" xmlns:xlink="http://www.w3.org/1999/xlink" version="1.1" x="0px" y="0px" viewBox="0 0 60 75" style="enable-background:new 0 0 60 60;" xml:space="preserve"><path d="M14.9,6v5.4h30.2V6c0-0.5-0.5-1-1-1H15.9C15.4,5,14.9,5.5,14.9,6z"/><path d="M45.3,13.3H14.7L5,53.8c-0.1,0.3,0,0.6,0.2,0.9C5.4,54.9,5.7,55,6,55c1.9,0,2.9-0.9,3.7-1.7c0.7-0.7,1.2-1.2,2.3-1.2  c1.1,0,1.6,0.5,2.3,1.2c0.6,0.6,1.3,1.3,2.5,1.6L20.7,29c0.1-0.5,0.6-0.9,1.1-0.8c0.5,0.1,0.9,0.6,0.8,1.1l-3.8,25.6  c1.4-0.2,2.2-1,2.8-1.6c0.7-0.7,1.2-1.2,2.3-1.2c1.1,0,1.6,0.5,2.3,1.2c0.6,0.6,1.4,1.3,2.7,1.6V34.3c0-0.5,0.5-1,1-1  c0.6,0,1,0.5,1,1v20.6c1.3-0.3,2.1-1,2.7-1.6c0.7-0.7,1.2-1.2,2.3-1.2c1.1,0,1.6,0.5,2.3,1.2c0.7,0.6,1.5,1.4,2.8,1.6l-3.8-25.6  c-0.1-0.5,0.3-1,0.8-1.1c0.5-0.1,1.1,0.3,1.1,0.8l3.8,25.9c1.2-0.3,1.9-1,2.6-1.6c0.7-0.7,1.2-1.2,2.3-1.2c1.1,0,1.6,0.5,2.3,1.2  c0.8,0.8,1.8,1.7,3.7,1.7c0.3,0,0.6-0.1,0.8-0.4c0.2-0.2,0.3-0.6,0.2-0.9L45.3,13.3z"/></svg>