<svg xmlns="http://www.w3.org/2000/svg" version="1.1" viewBox="-5.0 -10.0 110.0 135.0">
 <g>
  <path d="m79.707 47.707c-3.957 0-7.5117-1.7734-9.9023-4.5703-2.3906 2.7969-5.9453 4.5703-9.9023 4.5703-3.9609 0-7.5117-1.7734-9.9023-4.5703-2.3906 2.7969-5.9453 4.5703-9.9023 4.5703-3.957 0-7.5117-1.7734-9.9023-4.5703-2.3906 2.7969-5.9453 4.5703-9.9023 4.5703-0.44531 0-0.89062-0.023437-1.3281-0.066406-3.8203-0.39062-7.1641-2.5391-9.1836-5.9062-2.1055-3.5117-2.4414-7.8633-0.89062-11.637l4.832-11.781c1.4492-3.5352 4.8516-5.8203 8.6758-5.8203h55.207c3.8203 0 7.2266 2.2852 8.6758 5.8203l4.832 11.781c1.5469 3.7734 1.2109 8.125-0.89062 11.637-2.0156 3.3633-5.3633 5.5156-9.1797 5.9062-0.4375 0.042969-0.88281 0.066406-1.3281 0.066406zm-63.094-28.203h0.015625z"/>
  <path d="m56.25 67.188h-12.5c-0.86328 0-1.5625 0.70312-1.5625 1.5625v20.312h15.625v-20.312c0-0.85938-0.69922-1.5625-1.5625-1.5625z"/>
  <path d="m81.668 53.859c-0.64844 0.066406-1.3008 0.097656-1.9609 0.097656-3.5312 0-6.9414-0.96484-9.9023-2.7422-2.9609 1.7734-6.375 2.7422-9.9023 2.7422-3.5312 0-6.9414-0.96484-9.9023-2.7422-2.9609 1.7773-6.3711 2.7422-9.9023 2.7422s-6.9414-0.96484-9.9023-2.7422c-2.9609 1.7734-6.3711 2.7422-9.9023 2.7422-0.66016 0-1.3125-0.03125-1.957-0.097656-2.0586-0.21094-4.0195-0.76953-5.8359-1.6094v24.312c0 6.8906 5.6094 12.5 12.5 12.5h10.938v-20.312c0-4.3086 3.5039-7.8125 7.8125-7.8125h12.5c4.3086 0 7.8125 3.5039 7.8125 7.8125v20.312h10.938c6.8906 0 12.5-5.6094 12.5-12.5v-24.312c-1.8164 0.83984-3.7734 1.3984-5.832 1.6094z"/>
 </g>
</svg>