<svg xmlns="http://www.w3.org/2000/svg" viewBox="0 0 32 40" x="0px" y="0px"><path d="m19.1447,20.7568c.4586.4587.6613.9707.6187,1.5787-.1387,1.8666-2.4427,4.1386-3.7653,5.2265-1.3226-1.0879-3.6265-3.3599-3.7652-5.2265-.0427-.608.16-1.12.6186-1.5787.2773-.2879.6507-.4266,1.024-.4266s.7467.1387,1.024.4266c.16.1493.2667.3307.3413.544.1173.32.4159.5333.7573.5333s.64-.2133.7573-.5333c.0747-.2133.1813-.3947.3413-.544.5653-.5653,1.4826-.5653,2.0479,0Z" style="" stroke-width=" 0px"/><path d="m24.1259,11.2317c-.0747,3.1146-2.3679,5.4612-2.3679,5.4612.256-2.5066-.672-5.5785-3.8079-8.4478-2.1653-1.9839-.832-8.2451-.832-8.2451-3.6479,1.6426-5.4718,7.2425-5.3972,10.7304.0853,3.4773-.4266,6.2292-.4266,6.2292-2.1226-5.5465-5.9305-6.5172-5.9305-6.5172,0,0,2.0053,1.3333.672,9.9625-.672,4.4159.1813,6.2825,1.792,8.1171,3.0186,3.4239,8.3412,4.2666,12.6397,2.7626,11.2637-3.9572,3.6586-20.0529,3.6586-20.0529Zm-7.6478,17.9943c-.1493.1067-.3093.16-.48.16s-.3307-.0533-.48-.16c-.192-.1387-4.6399-3.4986-4.8745-6.7732-.0853-1.0773.2773-2.0373,1.0773-2.8266,1.1733-1.184,3.0826-1.1946,4.2772-.0426,1.1946-1.152,3.104-1.1413,4.2772.0426.8.7894,1.1627,1.7493,1.0773,2.8266-.2347,3.2746-4.6826,6.6345-4.8746,6.7732Z" style="" stroke-width=" 0px"/></svg>