<svg xmlns="http://www.w3.org/2000/svg" xmlns:xlink="http://www.w3.org/1999/xlink" version="1.1" x="0px" y="0px" viewBox="0 0 60 75" style="enable-background:new 0 0 60 60;" xml:space="preserve"><path d="M48.6,35.5c1.9-4.7,0.4-9.1-1.3-12c-1-1.8-1.6-3.9-1.6-6c0,0,0,0,0,0V6c0-0.6-0.4-1-1-1s-1,0.4-1,1v11.1L30,28.9L16.3,17.1  V6c0-0.6-0.4-1-1-1s-1,0.4-1,1v11.6c0,0,0,0,0,0c0,2.1-0.5,4.1-1.6,6c-1.7,2.9-3.2,7.3-1.3,12l0.3,0.8c2.7,6.4,3.8,9-0.4,17.3  c-0.2,0.3-0.1,0.7,0,1c0.2,0.3,0.5,0.5,0.9,0.5h35.5c0.3,0,0.7-0.2,0.8-0.5c0.2-0.3,0.2-0.7,0-1c-4.2-8.2-3.1-10.9-0.4-17.3  L48.6,35.5z"/></svg>