<svg xmlns="http://www.w3.org/2000/svg" xmlns:xlink="http://www.w3.org/1999/xlink" version="1.1" x="0px" y="0px" viewBox="0 0 60 75" style="enable-background:new 0 0 60 60;" xml:space="preserve"><path d="M23.9,5c-0.6,0-1,0.4-1,1v4.5L20.5,14c-0.1,0.2-0.2,0.5-0.2,0.7L22,27h16.1l1.6-12.3c0-0.2,0-0.5-0.2-0.7L37,10.4V6  c0-0.6-0.4-1-1-1s-1,0.4-1,1v4.4L30,15.8l-5-5.4V6C24.9,5.4,24.5,5,23.9,5z"/><path d="M12.8,50.4c-0.1,0.2-0.1,0.5,0,0.8c0.1,0.3,0.3,0.4,0.5,0.5c5.4,2.2,11,3.4,16.7,3.4c5.7,0,11.3-1.1,16.7-3.4  c0.3-0.1,0.4-0.3,0.5-0.5c0.1-0.2,0.1-0.5,0-0.8c-1.1-2.6-2.5-5.1-3.9-7.5c-2.6-4.6-5.1-9-5.4-13.8H22.1c-0.3,4.8-2.8,9.2-5.4,13.8  C15.3,45.3,13.8,47.8,12.8,50.4z"/></svg>