<svg xmlns="http://www.w3.org/2000/svg" xmlns:xlink="http://www.w3.org/1999/xlink" version="1.1" x="0px" y="0px" viewBox="0 0 60 75" style="enable-background:new 0 0 60 60;" xml:space="preserve"><path d="M16.2,29.8l-1.7-8.6c-0.1-0.6,0.3-1.2,1-1.3c0.7-0.1,1.3,0.3,1.4,0.9l1.8,8.9c0,0,0,0,0,0l0.8,3.8c0,0.1,0,0.2,0,0.3  l-3.4,20.6l1.9,0.3c2.7,0.4,5.4-0.2,7.5-1.8c2.1-1.5,3.3-3.8,3.3-6.2V30.2l-7.9-13.6c-0.3-0.5-0.1-1,0.4-1.4l2.2-1.5l-2.5-2.6  c-0.3-0.3-0.4-0.7-0.2-1l0.7-1.9L14.1,11L5,47.2l4.2,0.6L16.2,29.8z"/><path d="M38.6,8.2l0.7,1.9c0.1,0.4,0,0.8-0.2,1l-2.5,2.6l2.2,1.5c0.5,0.3,0.6,0.9,0.4,1.4l-7.9,13.6v16.6c0,2.4,1.2,4.7,3.3,6.2  c2.1,1.5,4.8,2.2,7.5,1.8l1.9-0.3l-3.4-20.6c0-0.1,0-0.2,0-0.3l0.8-3.8c0,0,0,0,0,0l1.8-8.9c0.1-0.6,0.7-1,1.4-0.9  c0.7,0.1,1.1,0.7,1,1.3l-1.7,8.6l7,17.9l4.2-0.6L45.9,11L38.6,8.2z"/><path d="M36.8,10.1l-1.2-3.3C35,6.4,33.2,5.1,30,5.1c-3.2,0-5,1.3-5.6,1.7l-1.2,3.3l2.9,3c0.2,0.2,0.3,0.5,0.3,0.8  c0,0.3-0.2,0.6-0.5,0.7l-2.5,1.6L30,27.5l6.5-11.2l-2.5-1.6c-0.3-0.2-0.4-0.4-0.5-0.7c0-0.3,0.1-0.6,0.3-0.8L36.8,10.1z"/></svg>