<svg xmlns="http://www.w3.org/2000/svg" xmlns:xlink="http://www.w3.org/1999/xlink" version="1.1" x="0px" y="0px" viewBox="0 0 60 75" style="enable-background:new 0 0 60 60;" xml:space="preserve"><path d="M18.7,6v3.1h22.5V6c0-0.5-0.4-1-1-1H19.7C19.2,5,18.7,5.5,18.7,6z"/><path d="M41.7,11.1H18.3c-2.2,6.6-2.1,12.2,0.3,18.9c-2.6,7.3-2.5,17.2,0.1,24.4c0.1,0.4,0.5,0.7,0.9,0.7h4.7c0.5,0,0.9-0.3,1-0.8  L30,28l4.6,26.2c0.1,0.5,0.5,0.8,1,0.8h4.7c0.4,0,0.8-0.3,0.9-0.7c2.7-7.2,2.7-17.1,0.1-24.4C43.8,23.3,43.9,17.7,41.7,11.1z"/></svg>