<svg width="164" height="48" viewBox="0 0 164 48" fill="none" xmlns="http://www.w3.org/2000/svg">
<path d="M33.1577 13.0914C33.041 13.0914 32.9228 13.114 32.8088 13.1628L25.6341 16.2007C25.4081 16.2964 25.2318 16.4763 25.1386 16.7074C25.0446 16.9381 25.0446 17.1924 25.1386 17.4234L31.9889 34.3309C32.1822 34.8079 32.72 35.0351 33.1846 34.8375L40.3593 31.7992C40.8259 31.6015 41.0482 31.0531 40.8552 30.5761L34.0048 13.669C33.8588 13.3089 33.5171 13.0914 33.1577 13.0914ZM32.8374 36C32.0587 36 31.3184 35.5285 31.0022 34.7488L24.1519 17.841C23.9494 17.341 23.9494 16.7898 24.1519 16.2895C24.3547 15.7891 24.7359 15.3994 25.2254 15.1924L32.4001 12.154C33.4096 11.7271 34.5722 12.2181 34.9912 13.2511L41.8415 30.1586C42.2595 31.1916 41.7782 32.3799 40.7684 32.8075L33.5937 35.8459C33.3463 35.9506 33.0896 36 32.8374 36Z" fill="white"/>
<path d="M33.1577 13.0914C33.041 13.0914 32.9228 13.114 32.8088 13.1628L25.6341 16.2007C25.4081 16.2964 25.2318 16.4763 25.1386 16.7074C25.0446 16.9381 25.0446 17.1924 25.1386 17.4234L31.9889 34.3309C32.1822 34.8079 32.72 35.0351 33.1846 34.8375L40.3593 31.7992C40.8259 31.6015 41.0482 31.0531 40.8552 30.5761L34.0048 13.669C33.8588 13.3089 33.5171 13.0914 33.1577 13.0914ZM32.8374 36C32.0587 36 31.3184 35.5285 31.0022 34.7488L24.1519 17.841C23.9494 17.341 23.9494 16.7898 24.1519 16.2895C24.3547 15.7891 24.7359 15.3994 25.2254 15.1924L32.4001 12.154C33.4096 11.7271 34.5722 12.2181 34.9912 13.2511L41.8415 30.1586C42.2595 31.1916 41.7782 32.3799 40.7684 32.8075L33.5937 35.8459C33.3463 35.9506 33.0896 36 32.8374 36Z" fill="url(#paint0_radial)"/>
<path d="M39.185 24.4085C37.1363 25.2747 35.4261 26.4721 34.3058 27.9131L31.4185 20.79C32.6434 19.2841 34.2487 18.152 36.2973 17.2857C38.3467 16.4195 40.4161 15.9981 42.1742 16.2428L45.0619 23.3655C43.2358 23.1705 41.234 23.5425 39.185 24.4085Z" fill="url(#paint1_linear)"/>
<path d="M39.185 24.4085C37.1363 25.2747 35.4261 26.4721 34.3058 27.9131L31.4185 20.79C32.6434 19.2841 34.2487 18.152 36.2973 17.2857C38.3467 16.4195 40.4161 15.9981 42.1742 16.2428L45.0619 23.3655C43.2358 23.1705 41.234 23.5425 39.185 24.4085Z" fill="url(#paint2_radial)"/>
<path d="M40.1586 26.6559C37.9338 26.6555 35.8979 27.0973 34.3179 27.9983L34.3189 20.7341C36.0207 19.8135 37.9348 19.391 40.1596 19.3914C42.3844 19.3917 44.4616 19.8149 46 20.7359L45.999 28.0001C44.3794 27.0983 42.3834 26.6562 40.1586 26.6559Z" fill="#5A78FF"/>
<path d="M54.286 30H52.234C52.114 30 52.03 29.964 51.982 29.892C51.934 29.82 51.928 29.724 51.964 29.604L55.618 18.048C55.642 17.964 55.684 17.898 55.744 17.85C55.816 17.79 55.888 17.76 55.96 17.76H57.796C57.868 17.76 57.934 17.79 57.994 17.85C58.066 17.898 58.12 17.964 58.156 18.048L61 25.338C61.024 25.41 61.066 25.452 61.126 25.464C61.186 25.464 61.228 25.422 61.252 25.338L64.078 18.048C64.114 17.964 64.162 17.898 64.222 17.85C64.294 17.79 64.366 17.76 64.438 17.76H66.274C66.346 17.76 66.412 17.79 66.472 17.85C66.544 17.898 66.592 17.964 66.616 18.048L70.198 29.604C70.234 29.712 70.222 29.808 70.162 29.892C70.114 29.964 70.036 30 69.928 30H67.75C67.666 30 67.594 29.982 67.534 29.946C67.486 29.898 67.45 29.832 67.426 29.748L65.104 22.242C65.092 22.17 65.05 22.134 64.978 22.134C64.918 22.134 64.876 22.17 64.852 22.242L62.116 29.694C62.08 29.79 62.026 29.868 61.954 29.928C61.894 29.976 61.816 30 61.72 30H60.442C60.346 30 60.268 29.976 60.208 29.928C60.148 29.88 60.1 29.802 60.064 29.694L57.238 22.242C57.214 22.17 57.172 22.134 57.112 22.134C57.064 22.134 57.028 22.17 57.004 22.242L54.628 29.748C54.604 29.832 54.562 29.898 54.502 29.946C54.442 29.982 54.37 30 54.286 30ZM80.4358 25.482C80.4358 26.826 79.9738 27.954 79.0498 28.866C78.1378 29.778 76.9918 30.234 75.6118 30.234C74.2438 30.234 73.0978 29.778 72.1738 28.866C71.2498 27.954 70.7878 26.826 70.7878 25.482C70.7878 24.138 71.2438 23.01 72.1558 22.098C73.0798 21.186 74.2318 20.73 75.6118 20.73C76.9918 20.73 78.1378 21.186 79.0498 22.098C79.9738 22.998 80.4358 24.126 80.4358 25.482ZM73.2358 25.482C73.2358 26.178 73.4698 26.772 73.9378 27.264C74.4058 27.756 74.9638 28.002 75.6118 28.002C76.2718 28.002 76.8298 27.756 77.2858 27.264C77.7538 26.772 77.9878 26.178 77.9878 25.482C77.9878 24.786 77.7538 24.192 77.2858 23.7C76.8298 23.208 76.2718 22.962 75.6118 22.962C74.9638 22.962 74.4058 23.208 73.9378 23.7C73.4698 24.192 73.2358 24.786 73.2358 25.482ZM91.6402 25.482C91.6402 26.814 91.2142 27.942 90.3622 28.866C89.5102 29.778 88.4602 30.234 87.2122 30.234C86.7802 30.234 86.3722 30.156 85.9882 30C85.6042 29.856 85.1962 29.61 84.7642 29.262C84.6682 29.19 84.5842 29.172 84.5122 29.208C84.4522 29.232 84.4222 29.304 84.4222 29.424V29.658C84.4222 29.754 84.3862 29.838 84.3142 29.91C84.2542 29.97 84.1822 30 84.0982 30H82.4062C82.3222 30 82.2442 29.964 82.1722 29.892C82.1002 29.82 82.0642 29.742 82.0642 29.658V18.102C82.0642 18.006 82.1002 17.928 82.1722 17.868C82.2442 17.796 82.3222 17.76 82.4062 17.76H84.1882C84.2722 17.76 84.3442 17.796 84.4042 17.868C84.4762 17.928 84.5122 18.006 84.5122 18.102V21.396C84.5122 21.516 84.5482 21.588 84.6202 21.612C84.7042 21.636 84.8062 21.606 84.9262 21.522C85.2862 21.258 85.6642 21.06 86.0602 20.928C86.4562 20.796 86.8642 20.73 87.2842 20.73C88.5082 20.73 89.5402 21.192 90.3802 22.116C91.2202 23.028 91.6402 24.15 91.6402 25.482ZM84.4402 25.482C84.4402 26.178 84.6682 26.772 85.1242 27.264C85.5802 27.744 86.1382 27.984 86.7982 27.984C87.4582 27.984 88.0222 27.744 88.4902 27.264C88.9582 26.772 89.1922 26.178 89.1922 25.482C89.1922 24.786 88.9582 24.192 88.4902 23.7C88.0222 23.208 87.4582 22.962 86.7982 22.962C86.1502 22.962 85.5922 23.208 85.1242 23.7C84.6682 24.192 84.4402 24.786 84.4402 25.482ZM95.8715 18.606C95.8715 18.978 95.7335 19.302 95.4575 19.578C95.1935 19.842 94.8755 19.974 94.5035 19.974C94.1315 19.974 93.8075 19.842 93.5315 19.578C93.2675 19.302 93.1355 18.978 93.1355 18.606C93.1355 18.234 93.2675 17.916 93.5315 17.652C93.8075 17.376 94.1315 17.238 94.5035 17.238C94.8755 17.238 95.1935 17.376 95.4575 17.652C95.7335 17.916 95.8715 18.234 95.8715 18.606ZM95.3675 30H93.5855C93.5015 30 93.4235 29.97 93.3515 29.91C93.2915 29.838 93.2615 29.754 93.2615 29.658V21.306C93.2615 21.21 93.2915 21.132 93.3515 21.072C93.4235 21 93.5015 20.964 93.5855 20.964H95.3675C95.4635 20.964 95.5415 21 95.6015 21.072C95.6735 21.132 95.7095 21.21 95.7095 21.306V29.658C95.7095 29.742 95.6735 29.82 95.6015 29.892C95.5415 29.964 95.4635 30 95.3675 30ZM101.021 30.09C99.7972 30.09 98.9332 29.856 98.4292 29.388C97.9372 28.908 97.6912 28.092 97.6912 26.94V18.102C97.6912 18.006 97.7212 17.928 97.7812 17.868C97.8532 17.796 97.9312 17.76 98.0152 17.76H99.7972C99.8932 17.76 99.9712 17.796 100.031 17.868C100.103 17.928 100.139 18.006 100.139 18.102V26.994C100.139 27.306 100.211 27.546 100.355 27.714C100.511 27.87 100.733 27.948 101.021 27.948C101.117 27.948 101.195 27.984 101.255 28.056C101.327 28.116 101.363 28.194 101.363 28.29V29.766C101.363 29.85 101.327 29.928 101.255 30C101.195 30.06 101.117 30.09 101.021 30.09ZM111.007 27.588C110.707 28.38 110.155 29.022 109.351 29.514C108.559 29.994 107.671 30.234 106.687 30.234C105.331 30.234 104.209 29.79 103.321 28.902C102.445 28.014 102.007 26.886 102.007 25.518C102.007 24.15 102.457 23.01 103.357 22.098C104.257 21.186 105.379 20.73 106.723 20.73C108.055 20.73 109.159 21.192 110.035 22.116C110.923 23.028 111.367 24.174 111.367 25.554C111.367 25.758 111.331 25.908 111.259 26.004C111.199 26.1 111.097 26.148 110.953 26.148H104.761C104.689 26.148 104.635 26.172 104.599 26.22C104.563 26.256 104.551 26.31 104.563 26.382C104.623 26.898 104.857 27.324 105.265 27.66C105.685 27.996 106.183 28.164 106.759 28.164C107.095 28.164 107.407 28.098 107.695 27.966C107.995 27.834 108.253 27.642 108.469 27.39C108.565 27.282 108.655 27.21 108.739 27.174C108.835 27.126 108.937 27.102 109.045 27.102H110.701C110.845 27.102 110.941 27.15 110.989 27.246C111.049 27.33 111.055 27.444 111.007 27.588ZM104.635 24.438C104.611 24.522 104.611 24.588 104.635 24.636C104.659 24.672 104.707 24.69 104.779 24.69H108.577C108.637 24.69 108.679 24.678 108.703 24.654C108.739 24.618 108.751 24.564 108.739 24.492C108.643 24 108.403 23.598 108.019 23.286C107.635 22.962 107.191 22.8 106.687 22.8C106.207 22.8 105.775 22.956 105.391 23.268C105.007 23.568 104.755 23.958 104.635 24.438ZM115.343 30H113.471C113.387 30 113.309 29.97 113.237 29.91C113.177 29.838 113.147 29.754 113.147 29.658V18.102C113.147 18.006 113.177 17.928 113.237 17.868C113.309 17.796 113.387 17.76 113.471 17.76H119.141C120.473 17.76 121.529 18.126 122.309 18.858C123.101 19.59 123.497 20.574 123.497 21.81C123.497 23.01 123.071 23.994 122.219 24.762C121.367 25.53 120.299 25.914 119.015 25.914H116.009C115.901 25.914 115.817 25.944 115.757 26.004C115.709 26.064 115.685 26.148 115.685 26.256V29.658C115.685 29.742 115.649 29.82 115.577 29.892C115.517 29.964 115.439 30 115.343 30ZM115.991 23.826H119.015C119.567 23.826 120.023 23.628 120.383 23.232C120.755 22.836 120.941 22.368 120.941 21.828C120.941 21.276 120.761 20.82 120.401 20.46C120.053 20.088 119.591 19.902 119.015 19.902H115.991C115.883 19.902 115.805 19.932 115.757 19.992C115.709 20.04 115.685 20.118 115.685 20.226V23.502C115.685 23.61 115.709 23.694 115.757 23.754C115.805 23.802 115.883 23.826 115.991 23.826ZM131.428 29.028C130.96 29.46 130.498 29.772 130.042 29.964C129.586 30.144 129.082 30.234 128.53 30.234C127.294 30.234 126.244 29.778 125.38 28.866C124.528 27.942 124.102 26.814 124.102 25.482C124.102 24.15 124.534 23.028 125.398 22.116C126.274 21.192 127.33 20.73 128.566 20.73C128.998 20.73 129.4 20.802 129.772 20.946C130.156 21.09 130.552 21.324 130.96 21.648C131.044 21.72 131.122 21.75 131.194 21.738C131.266 21.726 131.302 21.666 131.302 21.558V21.288C131.302 21.192 131.332 21.114 131.392 21.054C131.464 20.994 131.542 20.964 131.626 20.964H133.318C133.414 20.964 133.492 21 133.552 21.072C133.624 21.132 133.66 21.21 133.66 21.306V27.264C133.66 27.48 133.696 27.642 133.768 27.75C133.852 27.858 133.972 27.918 134.128 27.93C134.212 27.942 134.284 27.978 134.344 28.038C134.404 28.086 134.434 28.146 134.434 28.218V29.784C134.434 29.868 134.404 29.94 134.344 30C134.284 30.06 134.212 30.09 134.128 30.09C133.552 30.09 133.078 30.006 132.706 29.838C132.334 29.67 132.046 29.412 131.842 29.064C131.782 28.968 131.716 28.92 131.644 28.92C131.584 28.908 131.512 28.944 131.428 29.028ZM126.568 25.482C126.568 26.178 126.796 26.772 127.252 27.264C127.72 27.756 128.284 28.002 128.944 28.002C129.604 28.002 130.162 27.762 130.618 27.282C131.074 26.79 131.302 26.19 131.302 25.482C131.302 24.774 131.074 24.18 130.618 23.7C130.162 23.208 129.604 22.962 128.944 22.962C128.284 22.962 127.72 23.208 127.252 23.7C126.796 24.192 126.568 24.786 126.568 25.482ZM135.604 33.51C135.52 33.51 135.442 33.474 135.37 33.402C135.298 33.342 135.262 33.264 135.262 33.168V31.71C135.262 31.626 135.292 31.548 135.352 31.476C135.424 31.416 135.508 31.386 135.604 31.386C136.24 31.386 136.798 31.224 137.278 30.9C137.77 30.588 138.076 30.174 138.196 29.658C138.232 29.538 138.244 29.424 138.232 29.316C138.22 29.208 138.184 29.082 138.124 28.938L134.812 21.45C134.764 21.318 134.77 21.204 134.83 21.108C134.89 21.012 134.98 20.964 135.1 20.964H136.882C136.954 20.964 137.02 20.994 137.08 21.054C137.14 21.102 137.194 21.18 137.242 21.288L139.312 26.076C139.396 26.268 139.486 26.364 139.582 26.364C139.678 26.352 139.768 26.25 139.852 26.058L141.832 21.252C141.868 21.144 141.91 21.072 141.958 21.036C142.018 20.988 142.09 20.964 142.174 20.964H143.884C144.004 20.964 144.094 21.012 144.154 21.108C144.226 21.192 144.238 21.288 144.19 21.396L140.788 29.478C140.152 30.978 139.45 32.022 138.682 32.61C137.914 33.21 136.888 33.51 135.604 33.51Z" fill="#5A78FF"/>
<defs>
<radialGradient id="paint0_radial" cx="0" cy="0" r="1" gradientUnits="userSpaceOnUse" gradientTransform="translate(51.706 26.6971) scale(6.10872)">
<stop stop-color="#1D275A"/>
<stop offset="0.610802" stop-color="#4960DA"/>
<stop offset="1" stop-color="#5A78FF"/>
</radialGradient>
<linearGradient id="paint1_linear" x1="35.3115" y1="27.9131" x2="39.7934" y2="23.8447" gradientUnits="userSpaceOnUse">
<stop stop-color="#3B50CC"/>
<stop offset="1" stop-color="#5A78FF"/>
</linearGradient>
<radialGradient id="paint2_radial" cx="0" cy="0" r="1" gradientUnits="userSpaceOnUse" gradientTransform="translate(46.0244 28.4983) scale(4.48995)">
<stop stop-color="#3E54B6"/>
<stop offset="0.646789" stop-color="#4B63DF"/>
<stop offset="1" stop-color="#5A78FF" stop-opacity="0"/>
</radialGradient>
</defs>
</svg>
