<?xml version="1.0" encoding="UTF-8" standalone="no" ?>
<!DOCTYPE svg PUBLIC "-//W3C//DTD SVG 1.1//EN" "http://www.w3.org/Graphics/SVG/1.1/DTD/svg11.dtd">
<svg xmlns="http://www.w3.org/2000/svg" xmlns:xlink="http://www.w3.org/1999/xlink" version="1.1" width="865" height="600" viewBox="0 0 865 600" xml:space="preserve">
<desc>Created with Fabric.js 5.2.4</desc>
<defs>
</defs>
<g transform="matrix(1 0 0 1 432.5 300)" id="9658e729-b7bf-47cd-879f-6f3b5a4b4913"  >
<rect style="stroke: none; stroke-width: 1; stroke-dasharray: none; stroke-linecap: butt; stroke-dashoffset: 0; stroke-linejoin: miter; stroke-miterlimit: 4; fill: rgb(255,255,255); fill-rule: nonzero; opacity: 1; visibility: hidden;" vector-effect="non-scaling-stroke"  x="-432.5" y="-300" rx="0" ry="0" width="865" height="600" />
</g>
<g transform="matrix(Infinity NaN NaN Infinity 0 0)" id="c564ba50-041a-4b88-8e3e-5608563c0893"  >
</g>
<g transform="matrix(14.81 0 0 14.81 432.5 300)"  >
<path style="stroke: none; stroke-width: 1; stroke-dasharray: none; stroke-linecap: butt; stroke-dashoffset: 0; stroke-linejoin: miter; stroke-miterlimit: 4; fill: rgb(41,41,41); fill-rule: nonzero; opacity: 1;"  transform=" translate(-732.45, -145.5)" d="M 710.81 125.09 C 711.3325575198331 125.08202218841743 711.8353282537635 125.28964118214114 712.1999999999999 125.664 Q 712.771 126.238 712.7739999999999 127.055 L 712.7739999999999 131.038 Q 712.7739999999999 131.85600000000002 712.2009999999999 132.429 C 711.835918096409 132.8032460500109 711.3327546057393 133.01051612920122 710.81 133.002 L 705.1899999999999 133.002 Q 704.425 133.002 703.853 132.429 C 703.478753949989 132.0639180964091 703.2714838707988 131.56075460573942 703.28 131.038 L 703.28 127.055 Q 703.28 126.23700000000001 703.853 125.664 Q 704.425 125.09100000000001 705.1899999999999 125.09 z M 735.1999999999999 125.09 Q 735.963 125.09 736.536 125.664 Q 737.1089999999999 126.238 737.1089999999999 127.055 L 737.1089999999999 131.038 Q 737.1089999999999 131.85600000000002 736.536 132.429 Q 735.963 133.00199999999998 735.199 133.002 L 724.232 133.002 L 724.232 163.994 Q 724.232 164.758 723.659 165.331 Q 723.086 165.90399999999997 722.322 165.904 L 718.121 165.904 C 717.5982453942606 165.9125161292012 717.0950819035909 165.70524605001089 716.73 165.331 Q 716.157 164.75799999999998 716.157 163.994 L 716.157 127.055 Q 716.157 126.23700000000001 716.73 125.664 C 717.0946717462365 125.28964118214114 717.5974424801668 125.08202218841743 718.12 125.09 z M 735.314 125.09 Q 736.132 125.09 736.7049999999999 125.664 Q 737.2779999999999 126.238 737.2779999999999 127.055 L 737.2779999999999 131.038 Q 737.2779999999999 131.85600000000002 736.7049999999999 132.429 C 736.3399180964091 132.8032460500109 735.8367546057393 133.01051612920122 735.314 133.002 L 729.694 133.002 Q 728.929 133.002 728.357 132.429 C 727.982753949989 132.0639180964091 727.7754838707988 131.56075460573942 727.784 131.038 L 727.784 127.055 Q 727.784 126.23700000000001 728.357 125.664 Q 728.929 125.09100000000001 729.694 125.09 z M 759.704 125.09 Q 760.467 125.09 761.04 125.664 Q 761.6129999999999 126.238 761.6129999999999 127.055 L 761.6129999999999 131.038 Q 761.6129999999999 131.85600000000002 761.04 132.429 Q 760.467 133.00199999999998 759.703 133.002 L 748.736 133.002 L 748.736 163.994 Q 748.736 164.758 748.163 165.331 Q 747.59 165.90399999999997 746.826 165.904 L 742.626 165.904 C 742.1028999526063 165.9127928096777 741.5993218008194 165.705500941162 741.2339999999999 165.331 Q 740.661 164.75799999999998 740.661 163.994 L 740.661 127.055 Q 740.661 126.23700000000001 741.2339999999999 125.664 C 741.5989116281781 125.28938650545905 742.1020969179169 125.08174570293566 742.6249999999999 125.09 z" stroke-linecap="round" />
</g>
</svg>